<svg xmlns:dc="http://purl.org/dc/elements/1.1/" xmlns:cc="http://creativecommons.org/ns#" xmlns:rdf="http://www.w3.org/1999/02/22-rdf-syntax-ns#" xmlns:svg="http://www.w3.org/2000/svg" xmlns="http://www.w3.org/2000/svg" xmlns:xlink="http://www.w3.org/1999/xlink" id="svg514140" viewBox="0 0 1024 768" height="768px" width="1024px" version="1.1">
  <metadata id="metadata514146">
    <rdf:rdf>
      <cc:work rdf:about="">
        <dc:format>image/svg+xml</dc:format>
        <dc:type rdf:resource="http://purl.org/dc/dcmitype/StillImage"></dc:type>
      </cc:work>
    </rdf:rdf>
  </metadata>
  <defs id="defs514144"></defs>
  <linearGradient spreadMethod="pad" y2="30%" x2="-10%" y1="120%" x1="30%" id="3d_gradient2-logo-3ea372dc-637f-4b8a-9b72-ee63b4c109ae">
    <stop id="stop514121" stop-opacity="1" stop-color="#ffffff" offset="0%"></stop>
    <stop id="stop514123" stop-opacity="1" stop-color="#000000" offset="100%"></stop>
  </linearGradient>
  <linearGradient gradientTransform="rotate(-30)" spreadMethod="pad" y2="30%" x2="-10%" y1="120%" x1="30%" id="3d_gradient3-logo-3ea372dc-637f-4b8a-9b72-ee63b4c109ae">
    <stop id="stop514126" stop-opacity="1" stop-color="#ffffff" offset="0%"></stop>
    <stop id="stop514128" stop-opacity="1" stop-color="#cccccc" offset="50%"></stop>
    <stop id="stop514130" stop-opacity="1" stop-color="#000000" offset="100%"></stop>
  </linearGradient>
  <g id="logo-group">
    <image xlink:href="" id="container" x="272" y="144" width="480" height="480" style="display: none;" transform="translate(0 0)"></image>
    <g id="logo-center" transform="translate(2.2737367544323206e-13 0)">
      <image xlink:href="" id="icon_container" x="0" y="0" style="display: none;"></image>
      <g id="slogan" style="font-style:normal;font-weight:400;font-size:32px;line-height:1;font-family:Montserrat;font-variant-ligatures:none;text-align:center;text-anchor:middle" transform="translate(0 0)"></g>
      <g id="title" style="font-style:normal;font-weight:800;font-size:72px;line-height:1;font-family:'Montserrat ExtraBold Alt1';font-variant-ligatures:none;text-align:center;text-anchor:middle" transform="translate(0 0)">
        <path id="path514149" style="font-style:normal;font-weight:800;font-size:72px;line-height:1;font-family:'Montserrat ExtraBold Alt1';font-variant-ligatures:none;text-align:center;text-anchor:middle" d="m 383.03506,-38.52 c -2.376,-3.744 -5.688,-6.696 -9.936,-8.784 -4.32,-2.016 -9.216,-3.096 -14.688,-3.096 h -23.832 v 11.376 h 23.256 c 4.32,0 7.776,1.224 10.368,3.672 2.592,2.52 3.96,5.904 3.96,10.152 0,4.32 -1.368,7.704 -3.96,10.152 -2.592,2.448 -6.048,3.672 -10.368,3.672 h -9 v -13.392 h -14.256 V 0 h 23.832 c 5.472,0 10.368,-1.008 14.688,-3.096 4.248,-2.016 7.56,-4.968 9.936,-8.784 2.304,-3.744 3.528,-8.208 3.528,-13.32 0,-5.04 -1.224,-9.504 -3.528,-13.32 z" stroke-width="0" stroke-linejoin="miter" stroke-miterlimit="2" fill="#000000" stroke="#000000" transform="translate(0 307.4842) translate(252.1753119999999 34.808) scale(1.45) translate(-334.57906 50.4)"></path>
        <path id="path514151" style="font-style:normal;font-weight:800;font-size:72px;line-height:1;font-family:'Montserrat ExtraBold Alt1';font-variant-ligatures:none;text-align:center;text-anchor:middle" d="M 393.41544,-39.024 V 0 h 13.68 v -39.024 z m 0.792,-6.408 c 1.512,1.44 3.528,2.088 6.048,2.088 2.448,0 4.464,-0.648 6.048,-2.088 1.512,-1.44 2.304,-3.24 2.304,-5.4 0,-2.016 -0.792,-3.744 -2.304,-5.04 -1.584,-1.296 -3.6,-2.016 -6.048,-2.016 -2.52,0 -4.536,0.72 -6.048,2.088 -1.584,1.44 -2.304,3.168 -2.304,5.184 0,2.088 0.72,3.816 2.304,5.184 z" stroke-width="0" stroke-linejoin="miter" stroke-miterlimit="2" fill="#000000" stroke="#000000" transform="translate(0 307.4842) translate(335.2956629999999 23.95040000000001) scale(1.45) translate(-391.90344 57.888)"></path>
        <path id="path514153" style="font-style:normal;font-weight:800;font-size:72px;line-height:1;font-family:'Montserrat ExtraBold Alt1';font-variant-ligatures:none;text-align:center;text-anchor:middle" d="m 457.89144,-39.024 h -13.032 v 4.752 c -2.592,-3.6 -6.696,-5.4 -12.24,-5.4 -3.456,0 -6.696,0.792 -9.576,2.376 -2.952,1.584 -5.256,3.744 -6.984,6.624 -1.728,2.88 -2.592,6.12 -2.592,9.792 0,3.744 0.864,7.056 2.592,9.936 1.728,2.88 4.032,5.04 6.984,6.624 2.88,1.584 6.12,2.304 9.576,2.304 5.04,0 8.928,-1.512 11.592,-4.608 v 1.296 c 0,3.168 -0.864,5.472 -2.52,7.056 -1.728,1.584 -4.32,2.376 -7.92,2.376 -2.376,0 -4.752,-0.36 -7.2,-1.08 -2.448,-0.72 -4.392,-1.8 -5.976,-3.096 l -4.968,9.576 c 2.304,1.728 5.184,2.952 8.568,3.816 3.312,0.864 6.912,1.296 10.8,1.296 7.344,0 13.032,-1.8 16.992,-5.4 3.888,-3.6 5.904,-9.072 5.904,-16.344 z m -15.984,23.904 c -1.584,1.512 -3.6,2.232 -6.048,2.232 -2.448,0 -4.536,-0.72 -6.12,-2.232 -1.656,-1.44 -2.448,-3.384 -2.448,-5.76 0,-2.304 0.792,-4.248 2.376,-5.688 1.584,-1.44 3.672,-2.232 6.192,-2.232 2.448,0 4.536,0.792 6.12,2.232 1.584,1.44 2.376,3.384 2.376,5.688 0,2.376 -0.864,4.32 -2.448,5.76 z" stroke-width="0" stroke-linejoin="miter" stroke-miterlimit="2" fill="#000000" stroke="#000000" transform="translate(0 307.4842) translate(366.5634629999999 50.363600000000005) scale(1.45) translate(-413.46744 39.672)"></path>
        <path id="path514155" style="font-style:normal;font-weight:800;font-size:72px;line-height:1;font-family:'Montserrat ExtraBold Alt1';font-variant-ligatures:none;text-align:center;text-anchor:middle" d="M 466.68106,-39.024 V 0 h 13.68 v -39.024 z m 0.792,-6.408 c 1.512,1.44 3.528,2.088 6.048,2.088 2.448,0 4.464,-0.648 6.048,-2.088 1.512,-1.44 2.304,-3.24 2.304,-5.4 0,-2.016 -0.792,-3.744 -2.304,-5.04 -1.584,-1.296 -3.6,-2.016 -6.048,-2.016 -2.52,0 -4.536,0.72 -6.048,2.088 -1.584,1.44 -2.304,3.168 -2.304,5.184 0,2.088 0.72,3.816 2.304,5.184 z" stroke-width="0" stroke-linejoin="miter" stroke-miterlimit="2" fill="#000000" stroke="#000000" transform="translate(0 307.4842) translate(441.5308119999999 23.95040000000001) scale(1.45) translate(-465.16906 57.888)"></path>
        <path id="path514157" style="font-style:normal;font-weight:800;font-size:72px;line-height:1;font-family:'Montserrat ExtraBold Alt1';font-variant-ligatures:none;text-align:center;text-anchor:middle" d="m 516.10906,-1.584 -3.384,-9.576 c -1.224,0.864 -2.592,1.224 -4.176,1.224 -1.296,0 -2.304,-0.36 -3.024,-1.152 -0.72,-0.792 -1.08,-1.872 -1.08,-3.312 v -12.96 h 8.928 v -10.224 h -8.928 v -10.152 h -13.68 v 10.152 h -5.688 v 10.224 h 5.688 v 13.104 c 0,4.968 1.368,8.712 4.104,11.16 2.736,2.52 6.624,3.744 11.736,3.744 1.872,0 3.6,-0.144 5.256,-0.576 1.656,-0.36 3.096,-0.936 4.248,-1.656 z" stroke-width="0" stroke-linejoin="miter" stroke-miterlimit="2" fill="#000000" stroke="#000000" transform="translate(0 307.4842) translate(470.3974119999999 38.67080000000001) scale(1.45) translate(-485.07706 47.736)"></path>
        <path id="path514159" style="font-style:normal;font-weight:800;font-size:72px;line-height:1;font-family:'Montserrat ExtraBold Alt1';font-variant-ligatures:none;text-align:center;text-anchor:middle" d="m 522.96819,-0.864 c 3.024,1.296 6.336,1.872 10.08,1.872 6.336,0 11.16,-1.584 14.472,-4.896 3.312,-3.24 4.968,-8.136 4.968,-14.688 V -50.4 h -31.536 v 11.016 h 17.424 v 21.672 c 0,2.448 -0.576,4.248 -1.656,5.472 -1.08,1.296 -2.664,1.872 -4.68,1.872 -3.168,0 -6.048,-1.728 -8.712,-5.256 l -7.776,9.216 c 1.872,2.448 4.392,4.248 7.416,5.544 z" stroke-width="0" stroke-linejoin="miter" stroke-miterlimit="2" fill="#272c2f" stroke="#272c2f" transform="translate(0 307.4842) translate(514.5863504999999 34.808) scale(1.45) translate(-515.55219 50.4)"></path>
        <path id="path514161" style="font-style:normal;font-weight:800;font-size:72px;line-height:1;font-family:'Montserrat ExtraBold Alt1';font-variant-ligatures:none;text-align:center;text-anchor:middle" d="m 569.74231,-1.944 c 3.312,1.728 7.128,2.592 11.304,2.592 4.176,0 7.992,-0.864 11.376,-2.592 3.312,-1.728 5.976,-4.104 7.848,-7.2 1.872,-3.024 2.808,-6.552 2.808,-10.44 0,-3.888 -0.936,-7.344 -2.808,-10.368 -1.872,-3.024 -4.536,-5.4 -7.848,-7.128 -3.384,-1.728 -7.2,-2.592 -11.376,-2.592 -4.248,0 -8.064,0.864 -11.376,2.592 -3.312,1.728 -5.976,4.104 -7.848,7.128 -1.872,3.096 -2.808,6.552 -2.808,10.368 0,3.888 0.936,7.416 2.808,10.44 1.872,3.096 4.536,5.472 7.92,7.2 z m 17.208,-10.728 c -1.584,1.656 -3.528,2.448 -5.904,2.448 -2.448,0 -4.392,-0.792 -5.904,-2.448 -1.584,-1.656 -2.304,-3.96 -2.304,-6.912 0,-2.88 0.72,-5.112 2.304,-6.768 1.512,-1.584 3.456,-2.448 5.904,-2.448 2.376,0 4.32,0.864 5.904,2.448 1.512,1.656 2.304,3.888 2.304,6.768 0,2.952 -0.792,5.256 -2.304,6.912 z" stroke-width="0" stroke-linejoin="miter" stroke-miterlimit="2" fill="#272c2f" stroke="#272c2f" transform="translate(0 307.4842) translate(577.6064244999998 50.363600000000005) scale(1.45) translate(-559.01431 39.672)"></path>
        <path id="path514163" style="font-style:normal;font-weight:800;font-size:72px;line-height:1;font-family:'Montserrat ExtraBold Alt1';font-variant-ligatures:none;text-align:center;text-anchor:middle" d="m 643.61544,-37.224 c -2.88,-1.584 -6.12,-2.448 -9.648,-2.448 -4.608,0 -8.28,1.368 -10.872,4.032 v -17.784 h -13.68 V 0 h 13.032 v -3.888 c 2.52,3.024 6.336,4.536 11.52,4.536 3.528,0 6.768,-0.792 9.648,-2.448 2.88,-1.656 5.184,-4.032 6.912,-7.128 1.728,-3.024 2.592,-6.624 2.592,-10.656 0,-4.032 -0.864,-7.56 -2.592,-10.584 -1.728,-3.024 -4.032,-5.4 -6.912,-7.056 z m -6.624,24.552 c -1.584,1.656 -3.528,2.448 -5.904,2.448 -2.448,0 -4.392,-0.792 -5.904,-2.448 -1.584,-1.656 -2.304,-3.96 -2.304,-6.912 0,-2.88 0.72,-5.112 2.304,-6.768 1.512,-1.584 3.456,-2.448 5.904,-2.448 2.376,0 4.32,0.864 5.904,2.448 1.512,1.656 2.304,3.888 2.304,6.768 0,2.952 -0.792,5.256 -2.304,6.912 z" stroke-width="0" stroke-linejoin="miter" stroke-miterlimit="2" fill="#272c2f" stroke="#272c2f" transform="translate(0 307.4842) translate(650.6880629999997 30.4232) scale(1.45) translate(-609.41544 53.424)"></path>
        <path id="path514165" style="font-style:normal;font-weight:800;font-size:72px;line-height:1;font-family:'Montserrat ExtraBold Alt1';font-variant-ligatures:none;text-align:center;text-anchor:middle" d="m 664.01394,-0.432 c 3.168,0.72 6.336,1.08 9.648,1.08 4.032,0 7.56,-0.504 10.44,-1.656 2.88,-1.08 5.112,-2.592 6.624,-4.536 1.44,-1.944 2.232,-4.176 2.232,-6.624 0,-2.952 -0.792,-5.256 -2.376,-6.912 -1.584,-1.656 -3.384,-2.808 -5.472,-3.456 -2.16,-0.576 -4.824,-1.152 -7.992,-1.656 -2.592,-0.36 -4.392,-0.72 -5.472,-1.08 -1.152,-0.36 -1.656,-1.008 -1.656,-1.944 0,-0.792 0.504,-1.44 1.512,-1.944 1.008,-0.504 2.592,-0.792 4.752,-0.792 4.032,0 7.776,1.008 11.232,2.88 l 4.104,-9.288 c -1.872,-1.008 -4.248,-1.872 -6.984,-2.448 -2.808,-0.576 -5.616,-0.864 -8.424,-0.864 -4.032,0 -7.416,0.576 -10.296,1.728 -2.88,1.152 -5.04,2.664 -6.48,4.608 -1.512,1.944 -2.232,4.176 -2.232,6.624 0,3.024 0.792,5.4 2.376,7.056 1.584,1.728 3.456,2.88 5.616,3.456 2.16,0.648 4.824,1.152 7.992,1.512 2.448,0.36 4.176,0.72 5.328,1.08 1.152,0.36 1.728,0.936 1.728,1.8 0,0.864 -0.504,1.584 -1.44,2.016 -0.936,0.432 -2.52,0.648 -4.68,0.648 -2.448,0 -4.824,-0.288 -7.272,-0.936 -2.448,-0.648 -4.608,-1.512 -6.336,-2.664 l -4.104,9.36 c 1.872,1.224 4.464,2.232 7.632,2.952 z" stroke-width="0" stroke-linejoin="miter" stroke-miterlimit="2" fill="#272c2f" stroke="#272c2f" transform="translate(0 307.4842) translate(718.7894879999998 50.363600000000005) scale(1.45) translate(-656.38194 39.672)"></path>
      </g>
      <image xlink:href="" id="icon" x="0" y="0" style="display: none;"></image>
    </g>
  </g>
</svg>